<svg width="82" height="82" viewBox="0 0 82 82" fill="none" xmlns="http://www.w3.org/2000/svg">
<path d="M63.0625 35.3645L29.3036 16.402C26.9286 15.0354 23.7054 15.0354 21.3304 16.5729C19.125 17.7687 17.9375 19.8187 17.9375 22.0395V59.9646C17.9375 62.1854 19.125 64.2354 21.3304 65.602C22.5179 66.2854 23.875 66.627 25.4018 66.627C26.7589 66.627 28.1161 66.2854 29.3036 65.602L63.0625 46.6395C65.2679 45.4437 66.4554 43.2229 66.4554 41.002C66.625 38.6104 65.2679 36.5604 63.0625 35.3645ZM24.7232 59.2812V22.7229C24.7232 22.2104 25.2321 21.8687 25.7411 22.2104L58.1429 40.4895C58.6518 40.8312 58.6518 41.3437 58.1429 41.6854L25.7411 59.7937C25.2321 60.1354 24.7232 59.7937 24.7232 59.2812Z" fill="#1AB3FF"/>
</svg>
