<svg class="w-[8.5em] md:w-[11.25em]" viewBox="0 0 94 20" fill="none" width="113" height="24.04255319148936" xmlns="http://www.w3.org/2000/svg"><path d="M34.8591 12.6699C34.8704 13.0248 34.7869 13.3768 34.6158 13.6948C34.4448 14.0128 34.1915 14.287 33.8784 14.4932C33.5575 14.7062 33.1982 14.8649 32.8171 14.9619C32.3993 15.0716 31.9668 15.126 31.5324 15.1234H26.5498V5.60171H32.0699C32.4085 5.59782 32.7428 5.67145 33.043 5.816C33.3288 5.95432 33.5819 6.14362 33.7878 6.37293C33.9931 6.60486 34.1528 6.86821 34.2595 7.15104C34.3991 7.50747 34.4525 7.88776 34.416 8.26527C34.3796 8.64277 34.2541 9.00835 34.0485 9.33637C33.7986 9.74204 33.4107 10.0603 32.945 10.2417C33.5016 10.3818 33.9936 10.6855 34.3464 11.1069C34.6874 11.5232 34.8582 12.0443 34.8591 12.6699ZM28.5545 7.19V9.58504H31.227C31.3879 9.58844 31.5479 9.56166 31.6973 9.5063C31.8466 9.45095 31.9822 9.36819 32.0959 9.26303C32.2179 9.14605 32.3125 9.00713 32.3738 8.85492C32.4351 8.70272 32.4618 8.54049 32.4522 8.37835C32.4705 8.05951 32.3534 7.74665 32.1257 7.50628C32.0239 7.40263 31.8992 7.32028 31.76 7.26474C31.6209 7.20921 31.4705 7.18177 31.3189 7.18427L28.5545 7.19ZM32.8395 12.3262C32.8395 12.1592 32.8076 11.9935 32.7451 11.8368C32.6865 11.688 32.6004 11.5496 32.4907 11.4277C32.3877 11.314 32.2611 11.2205 32.1183 11.1527C31.9693 11.0851 31.8052 11.0506 31.6391 11.0519H28.5545V13.5603H31.5336C31.7105 13.5618 31.8858 13.5298 32.0488 13.4664C32.2046 13.4059 32.3456 13.3171 32.4634 13.2051C32.581 13.0898 32.6745 12.9554 32.7389 12.8086C32.8078 12.6538 32.842 12.4877 32.8395 12.3204V12.3262Z" fill="#FFFFFF"></path><path d="M36.1465 15.113V5.60156H38.1512V15.113H36.1465Z" fill="#FFFFFF"></path><path d="M48.0131 7.22423H44.7311V15.1233H42.7264V7.22423H39.4282V5.60156H48.0131V7.22423Z" fill="#FFFFFF"></path><path d="M57.7236 15.1233V8.82055L55.0647 13.519H53.9748L51.3172 8.82055V15.1233H49.3125V5.60156H51.4624L54.5123 11.0196L57.592 5.60156H59.7258V15.1233H57.7236Z" fill="#FFFFFF"></path><path d="M66.1573 15.1715C65.47 15.1791 64.7902 15.0394 64.1712 14.7635C63.5829 14.4994 63.0572 14.1302 62.6246 13.6772C62.1923 13.2221 61.8555 12.6967 61.6315 12.1278C61.4012 11.557 61.2831 10.9528 61.2827 10.3436C61.2826 9.10004 61.7824 7.90071 62.6854 6.97792C63.1251 6.5315 63.6557 6.16936 64.2469 5.91218C64.8598 5.64598 65.5297 5.51084 66.207 5.51683C66.8958 5.51004 67.5766 5.65459 68.193 5.93854C68.7797 6.21087 69.3027 6.58699 69.7322 7.04553C70.1627 7.504 70.4992 8.03093 70.7253 8.60059C70.9547 9.16689 71.0729 9.76646 71.0741 10.3711C71.0761 10.9932 70.9497 11.6101 70.7017 12.1886C70.4639 12.7514 70.1169 13.2695 69.6776 13.7173C69.24 14.1611 68.7119 14.5209 68.1235 14.7761C67.5088 15.043 66.8366 15.1781 66.1573 15.1715ZM63.2961 10.3436C63.2952 10.7485 63.3613 11.1512 63.4922 11.5377C63.616 11.9065 63.8102 12.2519 64.0657 12.5576C64.3098 12.8517 64.6192 13.0944 64.9731 13.2692C65.3489 13.452 65.7686 13.5442 66.1933 13.5373C66.6214 13.5456 67.0445 13.4508 67.4209 13.2623C67.7717 13.0804 68.0761 12.8311 68.3134 12.5312C68.5594 12.2208 68.7462 11.8739 68.8658 11.5056C68.9908 11.1294 69.0544 10.7382 69.0545 10.3447C69.0552 9.93966 68.9865 9.53704 68.8509 9.15179C68.725 8.78414 68.531 8.43945 68.2774 8.13304C68.0349 7.84148 67.7277 7.60118 67.3763 7.42828C67.0056 7.2516 66.593 7.16336 66.1759 7.17159C65.7478 7.16332 65.3247 7.2581 64.9483 7.44661C64.5974 7.62814 64.291 7.87472 64.0483 8.17086C63.7975 8.47739 63.6079 8.82276 63.4885 9.19075C63.3629 9.56412 63.2981 9.95263 63.2961 10.3436Z" fill="#FFFFFF"></path><path d="M80.9102 15.113V5.60156H82.9149V15.113H80.9102Z" fill="#FFFFFF"></path><path d="M87.0687 9.02338V15.1256H85.064V5.60156H86.6181L91.9954 11.8516V5.61532H94.0001V15.1267H92.3678L87.0687 9.02338Z" fill="#FFFFFF"></path><path d="M77.8682 5.60156L75.5197 11.729L73.1476 5.60156H71.082L74.9536 14.6993C75.0005 14.8098 75.0824 14.9046 75.1886 14.9715C75.2948 15.0384 75.4203 15.0741 75.5488 15.0741C75.6774 15.0741 75.8029 15.0384 75.9091 14.9715C76.0153 14.9046 76.0972 14.8098 76.1441 14.6993L79.9387 5.60614L77.8682 5.60156Z" fill="#FFFFFF"></path><path d="M7.03564 0V4.60447L14.1269 9.58896C14.1916 9.6359 14.2443 9.69765 14.2806 9.76911C14.3169 9.84058 14.3359 9.91971 14.3359 10C14.3359 10.0803 14.3169 10.1594 14.2806 10.2309C14.2443 10.3024 14.1916 10.3641 14.1269 10.411L7.03564 15.3955V20L20.5502 10.4997C20.6301 10.4433 20.6954 10.3683 20.7404 10.2811C20.7855 10.1939 20.809 10.097 20.809 9.99873C20.809 9.90043 20.7855 9.80358 20.7404 9.71637C20.6954 9.62917 20.6301 9.55418 20.5502 9.49775L7.03564 0Z" fill="#FFFFFF"></path><path d="M3.06689 3.36438V6.89975L6.91758 9.6067C6.98324 9.65266 7.03687 9.71393 7.07391 9.78529C7.11095 9.85664 7.1303 9.93596 7.1303 10.0165C7.1303 10.097 7.11095 10.1763 7.07391 10.2477C7.03687 10.319 6.98324 10.3803 6.91758 10.4263L3.06689 13.1332V16.6686L11.8237 10.5175C11.9039 10.4614 11.9694 10.3865 12.0147 10.2994C12.0599 10.2123 12.0835 10.1154 12.0835 10.0171C12.0835 9.91879 12.0599 9.82193 12.0147 9.73481C11.9694 9.64768 11.9039 9.57287 11.8237 9.51676L3.06689 3.36438Z" fill="#FFFFFF"></path><path d="M-9.59766e-08 6.24499V8.47186L1.55109 9.56123C1.61578 9.60817 1.66846 9.66992 1.70479 9.74138C1.74112 9.81285 1.76007 9.89199 1.76007 9.97227C1.76007 10.0526 1.74112 10.1317 1.70479 10.2032C1.66846 10.2746 1.61578 10.3364 1.55109 10.3833L-9.59766e-08 11.4739V13.6995L4.5929 10.4707C4.67282 10.4149 4.73813 10.3403 4.78323 10.2535C4.82833 10.1667 4.85188 10.0702 4.85188 9.97227C4.85188 9.87431 4.82833 9.7778 4.78323 9.691C4.73813 9.6042 4.67282 9.52968 4.5929 9.47382L-9.59766e-08 6.24499Z" fill="#FFFFFF"></path></svg>